<svg width="17" height="16" viewBox="0 0 17 16" fill="none" xmlns="http://www.w3.org/2000/svg">
<path d="M14.6875 15.875H2.3125C1.38051 15.875 0.625 15.1195 0.625 14.1875V1.8125C0.625 0.880508 1.38051 0.125 2.3125 0.125H14.6875C15.6195 0.125 16.375 0.880508 16.375 1.8125V14.1875C16.375 15.1195 15.6195 15.875 14.6875 15.875ZM7.49151 12.4276L13.9603 5.95886C14.1799 5.73921 14.1799 5.38304 13.9603 5.16338L13.1648 4.3679C12.9451 4.14825 12.589 4.14821 12.3693 4.3679L7.09375 9.64338L4.63074 7.18037C4.41108 6.96071 4.05491 6.96071 3.83522 7.18037L3.03974 7.97585C2.82009 8.1955 2.82009 8.55167 3.03974 8.77133L6.69599 12.4276C6.91568 12.6473 7.27182 12.6473 7.49151 12.4276Z" fill="#EF6079"/>
</svg>
