<svg width="19" height="24" viewBox="0 0 19 24" fill="none" xmlns="http://www.w3.org/2000/svg">
<path d="M1.15484 0.102937C1.55422 -0.080625 2.02344 -0.0150656 2.35719 0.270844L4.25 1.89328L6.14375 0.270844C6.56563 -0.0902812 7.18438 -0.0902812 7.60625 0.270844L9.5 1.89328L11.3937 0.270844C11.8156 -0.0902812 12.4344 -0.0902812 12.8563 0.270844L14.75 1.89328L16.6437 0.270844C16.9766 -0.0150656 17.4453 -0.080625 17.8438 0.102937C18.2422 0.286547 18.5 0.685781 18.5 1.125V22.875C18.5 23.3156 18.2422 23.7141 17.8438 23.8969C17.4453 24.0797 16.9766 24.0141 16.6437 23.7281L14.75 22.1062L12.8563 23.7281C12.4344 24.0891 11.8156 24.0891 11.3937 23.7281L9.5 22.1062L7.60625 23.7281C7.18438 24.0891 6.56563 24.0891 6.14375 23.7281L4.25 22.1062L2.35719 23.7281C2.02344 24.0141 1.55422 24.0797 1.15484 23.8969C0.75575 23.7141 0.5 23.3156 0.5 22.875V1.125C0.5 0.685781 0.75575 0.2865 1.15484 0.102937ZM5 6.75C4.58563 6.75 4.25 7.0875 4.25 7.5C4.25 7.9125 4.58563 8.25 5 8.25H14C14.4125 8.25 14.75 7.9125 14.75 7.5C14.75 7.0875 14.4125 6.75 14 6.75H5ZM5 17.25H14C14.4125 17.25 14.75 16.9125 14.75 16.5C14.75 16.0875 14.4125 15.75 14 15.75H5C4.58563 15.75 4.25 16.0875 4.25 16.5C4.25 16.9125 4.58563 17.25 5 17.25ZM5 11.25C4.58563 11.25 4.25 11.5875 4.25 12C4.25 12.4125 4.58563 12.75 5 12.75H14C14.4125 12.75 14.75 12.4125 14.75 12C14.75 11.5875 14.4125 11.25 14 11.25H5Z" fill="white"/>
</svg>
