<svg width="18" height="14" viewBox="0 0 18 14" fill="none" xmlns="http://www.w3.org/2000/svg">
<g clip-path="url(#clip0_4536_8860)">
<path d="M15.5881 3.07011L15.4783 2.96765C13.0109 0.604562 9.79791 0.869868 8.10175 1.23856C7.51318 1.36026 6.93733 1.53699 6.38182 1.76644C6.31102 1.79777 6.25043 1.84833 6.20692 1.91238C6.16341 1.97642 6.13873 2.05138 6.13568 2.12875C6.13263 2.20611 6.15134 2.28278 6.18967 2.35005C6.22801 2.41732 6.28444 2.47249 6.35255 2.5093C6.61694 2.65294 6.76241 2.81304 6.78345 2.98503C6.82095 3.29242 6.51722 3.67575 6.34706 3.83951C5.7311 4.27771 5.16071 4.77668 4.6445 5.3289C4.62254 5.2548 4.59693 5.1816 4.57039 5.11025C4.8476 4.94832 5.069 4.65739 5.2108 4.26401C5.3526 3.8761 5.50996 3.04358 5.09462 2.67397C5.00528 2.59483 4.89359 2.54538 4.77494 2.53243C4.6563 2.51949 4.53656 2.54369 4.43226 2.6017C4.13568 2.75321 3.87755 2.97035 3.6775 3.23662C3.39938 3.09298 2.91267 2.92008 2.42687 3.11586C1.97768 3.29517 1.91821 3.6355 1.91364 3.77273C1.89992 4.21186 2.31526 4.61074 2.70774 4.79554C2.97315 4.91801 3.26801 4.96213 3.55765 4.92271C3.77571 5.26777 3.91126 5.65848 3.95378 6.06445C3.95491 6.09296 3.95952 6.12122 3.9675 6.14862C3.75868 6.43129 3.57123 6.72914 3.40669 7.03969C3.26631 6.80527 3.06404 6.61408 2.8221 6.48712C2.60577 6.37944 2.36389 6.33365 2.12318 6.3548C1.88247 6.37595 1.65228 6.46322 1.45805 6.60697C0.94114 6.98114 0.524885 7.81366 0.762746 8.32598C0.801174 8.40924 1.02074 8.81544 1.60991 8.66723C2.24482 8.5117 2.619 7.9756 2.79373 7.64716C2.90553 7.94908 2.95923 8.26942 2.95201 8.5913C2.95321 8.61866 2.95658 8.64589 2.96207 8.67272C2.93326 9.11941 2.97025 9.56791 3.07185 10.0038C3.28134 10.9438 3.85298 11.7633 4.6628 12.2846L4.67561 12.2919C5.41664 12.6826 6.16683 12.7987 6.90329 12.6386C7.46406 12.5099 7.98385 12.2432 8.41556 11.8628C8.98654 12.2895 9.62388 12.6193 10.302 12.839C10.3084 12.8408 10.9689 13.0613 12.1317 13.0512L12.1656 13.0549C12.1765 13.0558 12.1875 13.0567 12.1985 13.0567L12.215 13.0576C12.5746 13.0528 12.9329 13.0121 13.2844 12.936C15.7967 12.3898 17.6081 10.0779 17.5907 7.43766C17.5788 5.7845 16.8121 4.11122 15.5881 3.07011ZM3.50458 3.97765C3.49314 4.04443 3.48763 4.11209 3.48812 4.17984L3.4872 4.24754L3.4195 4.25211C3.39571 4.25303 3.37284 4.25394 3.34997 4.25394C3.22911 4.25562 3.1094 4.2303 2.99957 4.17984C2.84724 4.11056 2.71663 4.00114 2.62174 3.8633L2.5824 3.79652L2.65102 3.76176C2.66132 3.75548 2.67239 3.75056 2.68395 3.74712C2.96756 3.63276 3.29873 3.79469 3.47165 3.90173L3.51373 3.92826L3.50458 3.97765ZM2.28051 7.13666C2.27868 7.14307 2.01977 7.84477 1.4736 7.99847L1.36107 8.03049L1.3812 7.91521C1.45064 7.61666 1.61853 7.35017 1.85784 7.15863C1.93345 7.10332 2.01975 7.06437 2.11125 7.04427C2.14374 7.03688 2.1768 7.03229 2.21007 7.03054L2.31161 7.02506L2.28051 7.13666ZM4.04893 3.98955C4.13991 3.71503 4.31988 3.47871 4.56033 3.31804L4.67011 3.23936L4.67652 3.37385C4.68569 3.67845 4.61538 3.98019 4.47251 4.24936C4.41273 4.37113 4.31647 4.47122 4.19714 4.53572L4.13402 4.56591L4.10199 4.5037C4.01703 4.34607 3.99795 4.16121 4.04893 3.98955ZM8.82176 10.1703C8.73411 10.417 8.60544 10.6472 8.44117 10.851L8.3872 10.9214L8.32864 10.8537C7.99051 10.4824 7.77462 10.0161 7.71019 9.51805C7.70929 9.51348 7.67361 9.13748 7.87487 8.91425C7.95563 8.8241 8.06188 8.76061 8.17953 8.73219C8.3689 8.69102 8.5537 8.77519 8.72844 8.98377C8.76503 9.03866 9.034 9.47963 8.82176 10.1703ZM13.1088 12.1272C12.8195 12.1901 12.5247 12.2241 12.2287 12.2288L12.1921 12.2251C12.1793 12.2242 12.1647 12.2233 12.1509 12.2233H12.1464C11.1409 12.2334 10.5673 12.055 10.5618 12.0531C9.99979 11.8693 9.46892 11.6013 8.98734 11.2581C9.19884 10.9923 9.36315 10.6921 9.47313 10.3707C9.8034 9.29848 9.30023 8.60868 9.28102 8.58397L9.26637 8.56293C8.80162 7.99847 8.2948 8.00944 8.03497 8.06617C7.77726 8.12446 7.54413 8.26165 7.36803 8.45864C6.96184 8.9115 7.02496 9.5272 7.03412 9.59581C7.11084 10.2276 7.38083 10.8203 7.80718 11.2929C7.49503 11.555 7.12499 11.7391 6.72764 11.8299C6.1888 11.947 5.63072 11.8573 5.07267 11.5655C4.46643 11.1556 4.03917 10.5301 3.87786 9.81629C3.70967 9.1078 3.75844 8.36509 4.01783 7.68467C4.04436 7.61788 4.69482 6.03334 6.85115 4.49729C6.86394 4.48796 6.87615 4.47788 6.88774 4.4671C6.97191 4.39117 7.7038 3.70503 7.605 2.88623C7.57914 2.66957 7.4961 2.46369 7.36439 2.28974C7.65897 2.19642 7.96545 2.115 8.27833 2.0473C10.1529 1.64019 12.8252 1.57249 14.9083 3.56688L15.0273 3.68032L15.0355 3.68764C15.0401 3.69038 15.0437 3.69405 15.0455 3.69496C15.579 4.15556 16.0052 4.7273 16.2943 5.37007C16.5949 6.02061 16.7543 6.72747 16.7618 7.44406C16.7774 9.6937 15.2413 11.6634 13.1088 12.1272Z" fill="#EF6079"/>
<path d="M14.5689 5.4735C14.4317 5.08011 14.1938 4.96392 14.0182 4.93556C13.8718 4.91178 13.5845 4.92641 13.311 5.28321C13.2239 5.39911 13.1517 5.52542 13.096 5.65921C12.8601 5.46513 12.5802 5.33193 12.2808 5.27131C12.1695 5.2474 12.0539 5.25187 11.9447 5.28432C11.8355 5.31678 11.7362 5.37616 11.656 5.45703C11.4639 5.66562 11.4218 6.01967 11.5462 6.38195C11.6468 6.67746 12.0082 7.38556 13.1875 7.65087C13.1803 7.88448 13.1515 8.11693 13.1015 8.34524C13.089 8.40562 13.0901 8.46801 13.1047 8.52791C13.1192 8.58782 13.1469 8.64375 13.1856 8.69169C13.2244 8.73963 13.2733 8.77839 13.3288 8.80517C13.3843 8.83195 13.4451 8.8461 13.5068 8.84659C13.536 8.84645 13.5651 8.84308 13.5937 8.83652C13.6715 8.81965 13.7428 8.78075 13.799 8.72446C13.8553 8.66817 13.8942 8.59687 13.9111 8.51907C14.0031 8.10929 14.0333 7.68808 14.0008 7.26937C14.2524 7.05255 14.89 6.39019 14.5689 5.4735ZM13.8141 5.74796L13.9047 5.6025L13.9468 5.76809C13.9772 5.90043 13.9767 6.03798 13.9454 6.17012C13.9142 6.30225 13.853 6.42544 13.7666 6.53017L13.6769 6.64818L13.6376 6.50638C13.5744 6.27858 13.7025 5.92635 13.8141 5.74796V5.74796ZM12.161 6.04163L12.1445 5.92727L12.2552 5.96021C12.6645 6.11862 12.9987 6.42578 13.1911 6.82018L13.2671 6.97571L13.1024 6.92173C12.6138 6.76163 12.3787 6.50912 12.2671 6.32524V6.32433C12.2135 6.238 12.1774 6.14193 12.161 6.04163V6.04163Z" fill="#EF6079"/>
</g>
<defs>
<clipPath id="clip0_4536_8860">
<rect width="17.8" height="14" fill="white" transform="translate(0.199951)"/>
</clipPath>
</defs>
</svg>
